<svg xmlns="http://www.w3.org/2000/svg" width="31.999" height="38.999" viewBox="0 0 31.999 38.999">
  <defs>
    <style>
      .cls-1 {
        fill: #adb6bc;
      }
    </style>
  </defs>
  <path id="apple_copy" data-name="apple copy" class="cls-1" d="M143.727,704.722a8.818,8.818,0,0,1,4.242-7.425,9.2,9.2,0,0,0-7.186-3.865c-3.06-.308-5.971,1.788-7.525,1.788s-3.946-1.742-6.484-1.7a9.625,9.625,0,0,0-8.129,4.889c-3.466,5.968-.887,14.809,2.49,19.649,1.651,2.369,3.619,5.03,6.2,4.935,2.488-.1,3.43-1.6,6.438-1.6s3.854,1.6,6.487,1.549c2.678-.049,4.374-2.414,6.014-4.791A21.432,21.432,0,0,0,149,712.611a8.624,8.624,0,0,1-5.273-7.889Zm-4.948-14.494A8.552,8.552,0,0,0,140.823,684a8.833,8.833,0,0,0-5.788,2.953,8.139,8.139,0,0,0-2.087,6.034,7.31,7.31,0,0,0,5.83-2.76Zm0,0" transform="translate(-117.001 -684)"/>
</svg>
