<svg xmlns="http://www.w3.org/2000/svg" width="24" height="24" viewBox="0 0 24 24">
  <defs>
    <style>
      .cls-1 {
        fill: none;
      }

      .cls-2 {
        fill: #adb6bc;
      }
    </style>
  </defs>
  <g id="Calander" transform="translate(-403 -480)">
    <path id="Path_1" data-name="Path 1" class="cls-1" d="M0,0H24V24H0Z" transform="translate(403 480)"/>
    <path id="Path_2" data-name="Path 2" class="cls-2" d="M17,3h4a1,1,0,0,1,1,1V20a1,1,0,0,1-1,1H3a1,1,0,0,1-1-1V4A1,1,0,0,1,3,3H7V1H9V3h6V1h2ZM4,9V19H20V9Zm2,2H8v2H6Zm5,0h2v2H11Zm5,0h2v2H16Z" transform="translate(403 480)"/>
  </g>
</svg>
