<svg xmlns="http://www.w3.org/2000/svg" xmlns:xlink="http://www.w3.org/1999/xlink" width="1298.999" height="154" viewBox="0 0 1298.999 154">
  <defs>
    <style>
      .cls-1 {
        fill: #2abb9c;
      }

      .cls-2 {
        fill: #0e4035;
      }

      .cls-3 {
        fill: #3a99d9;
      }

      .cls-4 {
        fill: #133348;
      }

      .cls-5 {
        fill: #9b5cb5;
      }

      .cls-6 {
        fill: #3a2344;
      }

      .cls-7 {
        filter: url(#Ellipse_4-32);
      }

      .cls-8 {
        filter: url(#Ellipse_3-32);
      }

      .cls-9 {
        filter: url(#Ellipse_4-31);
      }

      .cls-10 {
        filter: url(#Ellipse_3-31);
      }

      .cls-11 {
        filter: url(#Ellipse_4-30);
      }

      .cls-12 {
        filter: url(#Ellipse_3-30);
      }

      .cls-13 {
        filter: url(#Ellipse_4-29);
      }

      .cls-14 {
        filter: url(#Ellipse_3-29);
      }

      .cls-15 {
        filter: url(#Ellipse_4-28);
      }

      .cls-16 {
        filter: url(#Ellipse_3-28);
      }

      .cls-17 {
        filter: url(#Ellipse_4-27);
      }

      .cls-18 {
        filter: url(#Ellipse_3-27);
      }

      .cls-19 {
        filter: url(#Ellipse_4-26);
      }

      .cls-20 {
        filter: url(#Ellipse_3-26);
      }

      .cls-21 {
        filter: url(#Ellipse_4-25);
      }

      .cls-22 {
        filter: url(#Ellipse_3-25);
      }

      .cls-23 {
        filter: url(#Ellipse_4-24);
      }

      .cls-24 {
        filter: url(#Ellipse_3-24);
      }

      .cls-25 {
        filter: url(#Ellipse_4-23);
      }

      .cls-26 {
        filter: url(#Ellipse_3-23);
      }

      .cls-27 {
        filter: url(#Ellipse_4-22);
      }

      .cls-28 {
        filter: url(#Ellipse_3-22);
      }

      .cls-29 {
        filter: url(#Ellipse_4-21);
      }

      .cls-30 {
        filter: url(#Ellipse_3-21);
      }

      .cls-31 {
        filter: url(#Ellipse_4-20);
      }

      .cls-32 {
        filter: url(#Ellipse_3-20);
      }

      .cls-33 {
        filter: url(#Ellipse_4-19);
      }

      .cls-34 {
        filter: url(#Ellipse_3-19);
      }

      .cls-35 {
        filter: url(#Ellipse_4-18);
      }

      .cls-36 {
        filter: url(#Ellipse_3-18);
      }

      .cls-37 {
        filter: url(#Ellipse_4-17);
      }

      .cls-38 {
        filter: url(#Ellipse_3-17);
      }

      .cls-39 {
        filter: url(#Ellipse_4-16);
      }

      .cls-40 {
        filter: url(#Ellipse_3-16);
      }

      .cls-41 {
        filter: url(#Ellipse_4-15);
      }

      .cls-42 {
        filter: url(#Ellipse_3-15);
      }

      .cls-43 {
        filter: url(#Ellipse_4-14);
      }

      .cls-44 {
        filter: url(#Ellipse_3-14);
      }

      .cls-45 {
        filter: url(#Ellipse_4-13);
      }

      .cls-46 {
        filter: url(#Ellipse_3-13);
      }

      .cls-47 {
        filter: url(#Ellipse_4-12);
      }

      .cls-48 {
        filter: url(#Ellipse_3-12);
      }

      .cls-49 {
        filter: url(#Ellipse_4-11);
      }

      .cls-50 {
        filter: url(#Ellipse_3-11);
      }

      .cls-51 {
        filter: url(#Ellipse_4-10);
      }

      .cls-52 {
        filter: url(#Ellipse_3-10);
      }

      .cls-53 {
        filter: url(#Ellipse_4-9);
      }

      .cls-54 {
        filter: url(#Ellipse_3-9);
      }

      .cls-55 {
        filter: url(#Ellipse_4-8);
      }

      .cls-56 {
        filter: url(#Ellipse_3-8);
      }

      .cls-57 {
        filter: url(#Ellipse_4-7);
      }

      .cls-58 {
        filter: url(#Ellipse_3-7);
      }

      .cls-59 {
        filter: url(#Ellipse_4-6);
      }

      .cls-60 {
        filter: url(#Ellipse_3-6);
      }

      .cls-61 {
        filter: url(#Ellipse_4-5);
      }

      .cls-62 {
        filter: url(#Ellipse_3-5);
      }

      .cls-63 {
        filter: url(#Ellipse_4-4);
      }

      .cls-64 {
        filter: url(#Ellipse_3-4);
      }

      .cls-65 {
        filter: url(#Ellipse_4-3);
      }

      .cls-66 {
        filter: url(#Ellipse_3-3);
      }

      .cls-67 {
        filter: url(#Ellipse_4-2);
      }

      .cls-68 {
        filter: url(#Ellipse_3-2);
      }

      .cls-69 {
        filter: url(#Ellipse_4);
      }

      .cls-70 {
        filter: url(#Ellipse_3);
      }
    </style>
    <filter id="Ellipse_3" x="0" y="40" width="42" height="114" filterUnits="userSpaceOnUse">
      <feOffset dy="3" input="SourceAlpha"/>
      <feGaussianBlur stdDeviation="4" result="blur"/>
      <feFlood flood-opacity="0.329"/>
      <feComposite operator="in" in2="blur"/>
      <feComposite in="SourceGraphic"/>
    </filter>
    <filter id="Ellipse_4" x="5" y="45" width="32" height="32" filterUnits="userSpaceOnUse">
      <feOffset dy="3" input="SourceAlpha"/>
      <feGaussianBlur stdDeviation="4" result="blur-2"/>
      <feFlood flood-opacity="0.329"/>
      <feComposite operator="in" in2="blur-2"/>
      <feComposite in="SourceGraphic"/>
    </filter>
    <filter id="Ellipse_3-2" x="22.999" y="60" width="42" height="93.999" filterUnits="userSpaceOnUse">
      <feOffset dy="3" input="SourceAlpha"/>
      <feGaussianBlur stdDeviation="4" result="blur-3"/>
      <feFlood flood-opacity="0.329"/>
      <feComposite operator="in" in2="blur-3"/>
      <feComposite in="SourceGraphic"/>
    </filter>
    <filter id="Ellipse_4-2" x="28" y="65" width="32" height="32" filterUnits="userSpaceOnUse">
      <feOffset dy="3" input="SourceAlpha"/>
      <feGaussianBlur stdDeviation="4" result="blur-4"/>
      <feFlood flood-opacity="0.329"/>
      <feComposite operator="in" in2="blur-4"/>
      <feComposite in="SourceGraphic"/>
    </filter>
    <filter id="Ellipse_3-3" x="46" y="10" width="42" height="144" filterUnits="userSpaceOnUse">
      <feOffset dy="3" input="SourceAlpha"/>
      <feGaussianBlur stdDeviation="4" result="blur-5"/>
      <feFlood flood-opacity="0.329"/>
      <feComposite operator="in" in2="blur-5"/>
      <feComposite in="SourceGraphic"/>
    </filter>
    <filter id="Ellipse_4-3" x="51" y="15" width="32" height="32" filterUnits="userSpaceOnUse">
      <feOffset dy="3" input="SourceAlpha"/>
      <feGaussianBlur stdDeviation="4" result="blur-6"/>
      <feFlood flood-opacity="0.329"/>
      <feComposite operator="in" in2="blur-6"/>
      <feComposite in="SourceGraphic"/>
    </filter>
    <filter id="Ellipse_3-4" x="163" y="60" width="42" height="93.999" filterUnits="userSpaceOnUse">
      <feOffset dy="3" input="SourceAlpha"/>
      <feGaussianBlur stdDeviation="4" result="blur-7"/>
      <feFlood flood-opacity="0.329"/>
      <feComposite operator="in" in2="blur-7"/>
      <feComposite in="SourceGraphic"/>
    </filter>
    <filter id="Ellipse_4-4" x="168" y="65" width="32" height="32" filterUnits="userSpaceOnUse">
      <feOffset dy="3" input="SourceAlpha"/>
      <feGaussianBlur stdDeviation="4" result="blur-8"/>
      <feFlood flood-opacity="0.329"/>
      <feComposite operator="in" in2="blur-8"/>
      <feComposite in="SourceGraphic"/>
    </filter>
    <filter id="Ellipse_3-5" x="603" y="40" width="42" height="114" filterUnits="userSpaceOnUse">
      <feOffset dy="3" input="SourceAlpha"/>
      <feGaussianBlur stdDeviation="4" result="blur-9"/>
      <feFlood flood-opacity="0.329"/>
      <feComposite operator="in" in2="blur-9"/>
      <feComposite in="SourceGraphic"/>
    </filter>
    <filter id="Ellipse_4-5" x="608" y="45" width="32" height="32" filterUnits="userSpaceOnUse">
      <feOffset dy="3" input="SourceAlpha"/>
      <feGaussianBlur stdDeviation="4" result="blur-10"/>
      <feFlood flood-opacity="0.329"/>
      <feComposite operator="in" in2="blur-10"/>
      <feComposite in="SourceGraphic"/>
    </filter>
    <filter id="Ellipse_3-6" x="625.999" y="60" width="42" height="93.999" filterUnits="userSpaceOnUse">
      <feOffset dy="3" input="SourceAlpha"/>
      <feGaussianBlur stdDeviation="4" result="blur-11"/>
      <feFlood flood-opacity="0.329"/>
      <feComposite operator="in" in2="blur-11"/>
      <feComposite in="SourceGraphic"/>
    </filter>
    <filter id="Ellipse_4-6" x="631" y="65" width="32" height="32" filterUnits="userSpaceOnUse">
      <feOffset dy="3" input="SourceAlpha"/>
      <feGaussianBlur stdDeviation="4" result="blur-12"/>
      <feFlood flood-opacity="0.329"/>
      <feComposite operator="in" in2="blur-12"/>
      <feComposite in="SourceGraphic"/>
    </filter>
    <filter id="Ellipse_3-7" x="649" y="30" width="42" height="124" filterUnits="userSpaceOnUse">
      <feOffset dy="3" input="SourceAlpha"/>
      <feGaussianBlur stdDeviation="4" result="blur-13"/>
      <feFlood flood-opacity="0.329"/>
      <feComposite operator="in" in2="blur-13"/>
      <feComposite in="SourceGraphic"/>
    </filter>
    <filter id="Ellipse_4-7" x="654" y="35" width="32" height="32" filterUnits="userSpaceOnUse">
      <feOffset dy="3" input="SourceAlpha"/>
      <feGaussianBlur stdDeviation="4" result="blur-14"/>
      <feFlood flood-opacity="0.329"/>
      <feComposite operator="in" in2="blur-14"/>
      <feComposite in="SourceGraphic"/>
    </filter>
    <filter id="Ellipse_3-8" x="1132" y="40" width="42" height="114" filterUnits="userSpaceOnUse">
      <feOffset dy="3" input="SourceAlpha"/>
      <feGaussianBlur stdDeviation="4" result="blur-15"/>
      <feFlood flood-opacity="0.329"/>
      <feComposite operator="in" in2="blur-15"/>
      <feComposite in="SourceGraphic"/>
    </filter>
    <filter id="Ellipse_4-8" x="1137" y="45" width="32" height="32" filterUnits="userSpaceOnUse">
      <feOffset dy="3" input="SourceAlpha"/>
      <feGaussianBlur stdDeviation="4" result="blur-16"/>
      <feFlood flood-opacity="0.329"/>
      <feComposite operator="in" in2="blur-16"/>
      <feComposite in="SourceGraphic"/>
    </filter>
    <filter id="Ellipse_3-9" x="1155" y="60" width="42" height="93.999" filterUnits="userSpaceOnUse">
      <feOffset dy="3" input="SourceAlpha"/>
      <feGaussianBlur stdDeviation="4" result="blur-17"/>
      <feFlood flood-opacity="0.329"/>
      <feComposite operator="in" in2="blur-17"/>
      <feComposite in="SourceGraphic"/>
    </filter>
    <filter id="Ellipse_4-9" x="1160" y="65" width="32" height="32" filterUnits="userSpaceOnUse">
      <feOffset dy="3" input="SourceAlpha"/>
      <feGaussianBlur stdDeviation="4" result="blur-18"/>
      <feFlood flood-opacity="0.329"/>
      <feComposite operator="in" in2="blur-18"/>
      <feComposite in="SourceGraphic"/>
    </filter>
    <filter id="Ellipse_3-10" x="1178" y="10" width="42" height="144" filterUnits="userSpaceOnUse">
      <feOffset dy="3" input="SourceAlpha"/>
      <feGaussianBlur stdDeviation="4" result="blur-19"/>
      <feFlood flood-opacity="0.329"/>
      <feComposite operator="in" in2="blur-19"/>
      <feComposite in="SourceGraphic"/>
    </filter>
    <filter id="Ellipse_4-10" x="1183" y="15" width="32" height="32" filterUnits="userSpaceOnUse">
      <feOffset dy="3" input="SourceAlpha"/>
      <feGaussianBlur stdDeviation="4" result="blur-20"/>
      <feFlood flood-opacity="0.329"/>
      <feComposite operator="in" in2="blur-20"/>
      <feComposite in="SourceGraphic"/>
    </filter>
    <filter id="Ellipse_3-11" x="731" y="60" width="42" height="93.999" filterUnits="userSpaceOnUse">
      <feOffset dy="3" input="SourceAlpha"/>
      <feGaussianBlur stdDeviation="4" result="blur-21"/>
      <feFlood flood-opacity="0.329"/>
      <feComposite operator="in" in2="blur-21"/>
      <feComposite in="SourceGraphic"/>
    </filter>
    <filter id="Ellipse_4-11" x="736" y="65" width="32" height="32" filterUnits="userSpaceOnUse">
      <feOffset dy="3" input="SourceAlpha"/>
      <feGaussianBlur stdDeviation="4" result="blur-22"/>
      <feFlood flood-opacity="0.329"/>
      <feComposite operator="in" in2="blur-22"/>
      <feComposite in="SourceGraphic"/>
    </filter>
    <filter id="Ellipse_3-12" x="754" y="80" width="42" height="73.999" filterUnits="userSpaceOnUse">
      <feOffset dy="3" input="SourceAlpha"/>
      <feGaussianBlur stdDeviation="4" result="blur-23"/>
      <feFlood flood-opacity="0.329"/>
      <feComposite operator="in" in2="blur-23"/>
      <feComposite in="SourceGraphic"/>
    </filter>
    <filter id="Ellipse_4-12" x="759" y="85" width="32" height="32" filterUnits="userSpaceOnUse">
      <feOffset dy="3" input="SourceAlpha"/>
      <feGaussianBlur stdDeviation="4" result="blur-24"/>
      <feFlood flood-opacity="0.329"/>
      <feComposite operator="in" in2="blur-24"/>
      <feComposite in="SourceGraphic"/>
    </filter>
    <filter id="Ellipse_3-13" x="185.999" y="10" width="42" height="144" filterUnits="userSpaceOnUse">
      <feOffset dy="3" input="SourceAlpha"/>
      <feGaussianBlur stdDeviation="4" result="blur-25"/>
      <feFlood flood-opacity="0.329"/>
      <feComposite operator="in" in2="blur-25"/>
      <feComposite in="SourceGraphic"/>
    </filter>
    <filter id="Ellipse_4-13" x="191" y="15" width="32" height="32" filterUnits="userSpaceOnUse">
      <feOffset dy="3" input="SourceAlpha"/>
      <feGaussianBlur stdDeviation="4" result="blur-26"/>
      <feFlood flood-opacity="0.329"/>
      <feComposite operator="in" in2="blur-26"/>
      <feComposite in="SourceGraphic"/>
    </filter>
    <filter id="Ellipse_3-14" x="358" y="106" width="42" height="47.999" filterUnits="userSpaceOnUse">
      <feOffset dy="3" input="SourceAlpha"/>
      <feGaussianBlur stdDeviation="4" result="blur-27"/>
      <feFlood flood-opacity="0.329"/>
      <feComposite operator="in" in2="blur-27"/>
      <feComposite in="SourceGraphic"/>
    </filter>
    <filter id="Ellipse_4-14" x="363" y="111" width="32" height="32" filterUnits="userSpaceOnUse">
      <feOffset dy="3" input="SourceAlpha"/>
      <feGaussianBlur stdDeviation="4" result="blur-28"/>
      <feFlood flood-opacity="0.329"/>
      <feComposite operator="in" in2="blur-28"/>
      <feComposite in="SourceGraphic"/>
    </filter>
    <filter id="Ellipse_3-15" x="381" y="90" width="42" height="64" filterUnits="userSpaceOnUse">
      <feOffset dy="3" input="SourceAlpha"/>
      <feGaussianBlur stdDeviation="4" result="blur-29"/>
      <feFlood flood-opacity="0.329"/>
      <feComposite operator="in" in2="blur-29"/>
      <feComposite in="SourceGraphic"/>
    </filter>
    <filter id="Ellipse_4-15" x="386" y="95" width="32" height="32" filterUnits="userSpaceOnUse">
      <feOffset dy="3" input="SourceAlpha"/>
      <feGaussianBlur stdDeviation="4" result="blur-30"/>
      <feFlood flood-opacity="0.329"/>
      <feComposite operator="in" in2="blur-30"/>
      <feComposite in="SourceGraphic"/>
    </filter>
    <filter id="Ellipse_3-16" x="404" y="40" width="42" height="114" filterUnits="userSpaceOnUse">
      <feOffset dy="3" input="SourceAlpha"/>
      <feGaussianBlur stdDeviation="4" result="blur-31"/>
      <feFlood flood-opacity="0.329"/>
      <feComposite operator="in" in2="blur-31"/>
      <feComposite in="SourceGraphic"/>
    </filter>
    <filter id="Ellipse_4-16" x="409" y="45" width="32" height="32" filterUnits="userSpaceOnUse">
      <feOffset dy="3" input="SourceAlpha"/>
      <feGaussianBlur stdDeviation="4" result="blur-32"/>
      <feFlood flood-opacity="0.329"/>
      <feComposite operator="in" in2="blur-32"/>
      <feComposite in="SourceGraphic"/>
    </filter>
    <filter id="Ellipse_3-17" x="992" y="106" width="42" height="47.999" filterUnits="userSpaceOnUse">
      <feOffset dy="3" input="SourceAlpha"/>
      <feGaussianBlur stdDeviation="4" result="blur-33"/>
      <feFlood flood-opacity="0.329"/>
      <feComposite operator="in" in2="blur-33"/>
      <feComposite in="SourceGraphic"/>
    </filter>
    <filter id="Ellipse_4-17" x="997" y="111" width="32" height="32" filterUnits="userSpaceOnUse">
      <feOffset dy="3" input="SourceAlpha"/>
      <feGaussianBlur stdDeviation="4" result="blur-34"/>
      <feFlood flood-opacity="0.329"/>
      <feComposite operator="in" in2="blur-34"/>
      <feComposite in="SourceGraphic"/>
    </filter>
    <filter id="Ellipse_3-18" x="1015" y="90" width="42" height="64" filterUnits="userSpaceOnUse">
      <feOffset dy="3" input="SourceAlpha"/>
      <feGaussianBlur stdDeviation="4" result="blur-35"/>
      <feFlood flood-opacity="0.329"/>
      <feComposite operator="in" in2="blur-35"/>
      <feComposite in="SourceGraphic"/>
    </filter>
    <filter id="Ellipse_4-18" x="1020" y="95" width="32" height="32" filterUnits="userSpaceOnUse">
      <feOffset dy="3" input="SourceAlpha"/>
      <feGaussianBlur stdDeviation="4" result="blur-36"/>
      <feFlood flood-opacity="0.329"/>
      <feComposite operator="in" in2="blur-36"/>
      <feComposite in="SourceGraphic"/>
    </filter>
    <filter id="Ellipse_3-19" x="1038" y="40" width="42" height="114" filterUnits="userSpaceOnUse">
      <feOffset dy="3" input="SourceAlpha"/>
      <feGaussianBlur stdDeviation="4" result="blur-37"/>
      <feFlood flood-opacity="0.329"/>
      <feComposite operator="in" in2="blur-37"/>
      <feComposite in="SourceGraphic"/>
    </filter>
    <filter id="Ellipse_4-19" x="1043" y="45" width="32" height="32" filterUnits="userSpaceOnUse">
      <feOffset dy="3" input="SourceAlpha"/>
      <feGaussianBlur stdDeviation="4" result="blur-38"/>
      <feFlood flood-opacity="0.329"/>
      <feComposite operator="in" in2="blur-38"/>
      <feComposite in="SourceGraphic"/>
    </filter>
    <filter id="Ellipse_3-20" x="1084" y="70" width="42" height="83.999" filterUnits="userSpaceOnUse">
      <feOffset dy="3" input="SourceAlpha"/>
      <feGaussianBlur stdDeviation="4" result="blur-39"/>
      <feFlood flood-opacity="0.329"/>
      <feComposite operator="in" in2="blur-39"/>
      <feComposite in="SourceGraphic"/>
    </filter>
    <filter id="Ellipse_4-20" x="1089" y="75" width="32" height="32" filterUnits="userSpaceOnUse">
      <feOffset dy="3" input="SourceAlpha"/>
      <feGaussianBlur stdDeviation="4" result="blur-40"/>
      <feFlood flood-opacity="0.329"/>
      <feComposite operator="in" in2="blur-40"/>
      <feComposite in="SourceGraphic"/>
    </filter>
    <filter id="Ellipse_3-21" x="1256.999" y="40" width="42" height="114" filterUnits="userSpaceOnUse">
      <feOffset dy="3" input="SourceAlpha"/>
      <feGaussianBlur stdDeviation="4" result="blur-41"/>
      <feFlood flood-opacity="0.329"/>
      <feComposite operator="in" in2="blur-41"/>
      <feComposite in="SourceGraphic"/>
    </filter>
    <filter id="Ellipse_4-21" x="1262" y="45" width="32" height="32" filterUnits="userSpaceOnUse">
      <feOffset dy="3" input="SourceAlpha"/>
      <feGaussianBlur stdDeviation="4" result="blur-42"/>
      <feFlood flood-opacity="0.329"/>
      <feComposite operator="in" in2="blur-42"/>
      <feComposite in="SourceGraphic"/>
    </filter>
    <filter id="Ellipse_3-22" x="1216" y="70" width="42" height="83.999" filterUnits="userSpaceOnUse">
      <feOffset dy="3" input="SourceAlpha"/>
      <feGaussianBlur stdDeviation="4" result="blur-43"/>
      <feFlood flood-opacity="0.329"/>
      <feComposite operator="in" in2="blur-43"/>
      <feComposite in="SourceGraphic"/>
    </filter>
    <filter id="Ellipse_4-22" x="1221" y="75" width="32" height="32" filterUnits="userSpaceOnUse">
      <feOffset dy="3" input="SourceAlpha"/>
      <feGaussianBlur stdDeviation="4" result="blur-44"/>
      <feFlood flood-opacity="0.329"/>
      <feComposite operator="in" in2="blur-44"/>
      <feComposite in="SourceGraphic"/>
    </filter>
    <filter id="Ellipse_3-23" x="471" y="60" width="42" height="93.999" filterUnits="userSpaceOnUse">
      <feOffset dy="3" input="SourceAlpha"/>
      <feGaussianBlur stdDeviation="4" result="blur-45"/>
      <feFlood flood-opacity="0.329"/>
      <feComposite operator="in" in2="blur-45"/>
      <feComposite in="SourceGraphic"/>
    </filter>
    <filter id="Ellipse_4-23" x="476" y="65" width="32" height="32" filterUnits="userSpaceOnUse">
      <feOffset dy="3" input="SourceAlpha"/>
      <feGaussianBlur stdDeviation="4" result="blur-46"/>
      <feFlood flood-opacity="0.329"/>
      <feComposite operator="in" in2="blur-46"/>
      <feComposite in="SourceGraphic"/>
    </filter>
    <filter id="Ellipse_3-24" x="494" y="96" width="42" height="57.999" filterUnits="userSpaceOnUse">
      <feOffset dy="3" input="SourceAlpha"/>
      <feGaussianBlur stdDeviation="4" result="blur-47"/>
      <feFlood flood-opacity="0.329"/>
      <feComposite operator="in" in2="blur-47"/>
      <feComposite in="SourceGraphic"/>
    </filter>
    <filter id="Ellipse_4-24" x="499" y="101" width="32" height="32" filterUnits="userSpaceOnUse">
      <feOffset dy="3" input="SourceAlpha"/>
      <feGaussianBlur stdDeviation="4" result="blur-48"/>
      <feFlood flood-opacity="0.329"/>
      <feComposite operator="in" in2="blur-48"/>
      <feComposite in="SourceGraphic"/>
    </filter>
    <filter id="Ellipse_3-25" x="68.999" y="90" width="42" height="64" filterUnits="userSpaceOnUse">
      <feOffset dy="3" input="SourceAlpha"/>
      <feGaussianBlur stdDeviation="4" result="blur-49"/>
      <feFlood flood-opacity="0.329"/>
      <feComposite operator="in" in2="blur-49"/>
      <feComposite in="SourceGraphic"/>
    </filter>
    <filter id="Ellipse_4-25" x="74" y="95" width="32" height="32" filterUnits="userSpaceOnUse">
      <feOffset dy="3" input="SourceAlpha"/>
      <feGaussianBlur stdDeviation="4" result="blur-50"/>
      <feFlood flood-opacity="0.329"/>
      <feComposite operator="in" in2="blur-50"/>
      <feComposite in="SourceGraphic"/>
    </filter>
    <filter id="Ellipse_3-26" x="228" y="90" width="42" height="64" filterUnits="userSpaceOnUse">
      <feOffset dy="3" input="SourceAlpha"/>
      <feGaussianBlur stdDeviation="4" result="blur-51"/>
      <feFlood flood-opacity="0.329"/>
      <feComposite operator="in" in2="blur-51"/>
      <feComposite in="SourceGraphic"/>
    </filter>
    <filter id="Ellipse_4-26" x="233" y="95" width="32" height="32" filterUnits="userSpaceOnUse">
      <feOffset dy="3" input="SourceAlpha"/>
      <feGaussianBlur stdDeviation="4" result="blur-52"/>
      <feFlood flood-opacity="0.329"/>
      <feComposite operator="in" in2="blur-52"/>
      <feComposite in="SourceGraphic"/>
    </filter>
    <filter id="Ellipse_3-27" x="92" y="50" width="42" height="103.999" filterUnits="userSpaceOnUse">
      <feOffset dy="3" input="SourceAlpha"/>
      <feGaussianBlur stdDeviation="4" result="blur-53"/>
      <feFlood flood-opacity="0.329"/>
      <feComposite operator="in" in2="blur-53"/>
      <feComposite in="SourceGraphic"/>
    </filter>
    <filter id="Ellipse_4-27" x="97" y="55" width="32" height="32" filterUnits="userSpaceOnUse">
      <feOffset dy="3" input="SourceAlpha"/>
      <feGaussianBlur stdDeviation="4" result="blur-54"/>
      <feFlood flood-opacity="0.329"/>
      <feComposite operator="in" in2="blur-54"/>
      <feComposite in="SourceGraphic"/>
    </filter>
    <filter id="Ellipse_3-28" x="823" y="0" width="42" height="154" filterUnits="userSpaceOnUse">
      <feOffset dy="3" input="SourceAlpha"/>
      <feGaussianBlur stdDeviation="4" result="blur-55"/>
      <feFlood flood-opacity="0.329"/>
      <feComposite operator="in" in2="blur-55"/>
      <feComposite in="SourceGraphic"/>
    </filter>
    <filter id="Ellipse_4-28" x="828" y="5" width="32" height="32" filterUnits="userSpaceOnUse">
      <feOffset dy="3" input="SourceAlpha"/>
      <feGaussianBlur stdDeviation="4" result="blur-56"/>
      <feFlood flood-opacity="0.329"/>
      <feComposite operator="in" in2="blur-56"/>
      <feComposite in="SourceGraphic"/>
    </filter>
    <filter id="Ellipse_3-29" x="846" y="30" width="42" height="124" filterUnits="userSpaceOnUse">
      <feOffset dy="3" input="SourceAlpha"/>
      <feGaussianBlur stdDeviation="4" result="blur-57"/>
      <feFlood flood-opacity="0.329"/>
      <feComposite operator="in" in2="blur-57"/>
      <feComposite in="SourceGraphic"/>
    </filter>
    <filter id="Ellipse_4-29" x="851" y="35" width="32" height="32" filterUnits="userSpaceOnUse">
      <feOffset dy="3" input="SourceAlpha"/>
      <feGaussianBlur stdDeviation="4" result="blur-58"/>
      <feFlood flood-opacity="0.329"/>
      <feComposite operator="in" in2="blur-58"/>
      <feComposite in="SourceGraphic"/>
    </filter>
    <filter id="Ellipse_3-30" x="868.999" y="10" width="42" height="144" filterUnits="userSpaceOnUse">
      <feOffset dy="3" input="SourceAlpha"/>
      <feGaussianBlur stdDeviation="4" result="blur-59"/>
      <feFlood flood-opacity="0.329"/>
      <feComposite operator="in" in2="blur-59"/>
      <feComposite in="SourceGraphic"/>
    </filter>
    <filter id="Ellipse_4-30" x="874" y="15" width="32" height="32" filterUnits="userSpaceOnUse">
      <feOffset dy="3" input="SourceAlpha"/>
      <feGaussianBlur stdDeviation="4" result="blur-60"/>
      <feFlood flood-opacity="0.329"/>
      <feComposite operator="in" in2="blur-60"/>
      <feComposite in="SourceGraphic"/>
    </filter>
    <filter id="Ellipse_3-31" x="892" y="50" width="42" height="103.999" filterUnits="userSpaceOnUse">
      <feOffset dy="3" input="SourceAlpha"/>
      <feGaussianBlur stdDeviation="4" result="blur-61"/>
      <feFlood flood-opacity="0.329"/>
      <feComposite operator="in" in2="blur-61"/>
      <feComposite in="SourceGraphic"/>
    </filter>
    <filter id="Ellipse_4-31" x="897" y="55" width="32" height="32" filterUnits="userSpaceOnUse">
      <feOffset dy="3" input="SourceAlpha"/>
      <feGaussianBlur stdDeviation="4" result="blur-62"/>
      <feFlood flood-opacity="0.329"/>
      <feComposite operator="in" in2="blur-62"/>
      <feComposite in="SourceGraphic"/>
    </filter>
    <filter id="Ellipse_3-32" x="914.999" y="70" width="42" height="83.999" filterUnits="userSpaceOnUse">
      <feOffset dy="3" input="SourceAlpha"/>
      <feGaussianBlur stdDeviation="4" result="blur-63"/>
      <feFlood flood-opacity="0.329"/>
      <feComposite operator="in" in2="blur-63"/>
      <feComposite in="SourceGraphic"/>
    </filter>
    <filter id="Ellipse_4-32" x="920" y="75" width="32" height="32" filterUnits="userSpaceOnUse">
      <feOffset dy="3" input="SourceAlpha"/>
      <feGaussianBlur stdDeviation="4" result="blur-64"/>
      <feFlood flood-opacity="0.329"/>
      <feComposite operator="in" in2="blur-64"/>
      <feComposite in="SourceGraphic"/>
    </filter>
  </defs>
  <g id="Chart_Lines" data-name="Chart Lines" transform="translate(-85 -198)">
    <g id="_1" data-name="1">
      <g class="cls-70" transform="matrix(1, 0, 0, 1, 85, 198)">
        <path id="Ellipse_3-33" data-name="Ellipse 3" class="cls-1" d="M101,337V263.484a9,9,0,1,1,10,0V337Z" transform="translate(-85 -198)"/>
      </g>
      <g class="cls-69" transform="matrix(1, 0, 0, 1, 85, 198)">
        <circle id="Ellipse_4-33" data-name="Ellipse 4" class="cls-2" cx="4" cy="4" r="4" transform="translate(17 54)"/>
      </g>
    </g>
    <g id="_2" data-name="2">
      <g class="cls-68" transform="matrix(1, 0, 0, 1, 85, 198)">
        <path id="Ellipse_3-34" data-name="Ellipse 3" class="cls-1" d="M124,337V283.485a9,9,0,1,1,10,0V337Z" transform="translate(-85 -198)"/>
      </g>
      <g class="cls-67" transform="matrix(1, 0, 0, 1, 85, 198)">
        <circle id="Ellipse_4-34" data-name="Ellipse 4" class="cls-2" cx="4" cy="4" r="4" transform="translate(40 74)"/>
      </g>
    </g>
    <g id="_1_copy" data-name="1 copy">
      <g class="cls-66" transform="matrix(1, 0, 0, 1, 85, 198)">
        <path id="Ellipse_3-35" data-name="Ellipse 3" class="cls-1" d="M147,337V233.484a9,9,0,1,1,10,0V337Z" transform="translate(-85 -198)"/>
      </g>
      <g class="cls-65" transform="matrix(1, 0, 0, 1, 85, 198)">
        <circle id="Ellipse_4-35" data-name="Ellipse 4" class="cls-2" cx="4" cy="4" r="4" transform="translate(63 24)"/>
      </g>
    </g>
    <g id="_2_copy_3" data-name="2 copy 3">
      <g class="cls-64" transform="matrix(1, 0, 0, 1, 85, 198)">
        <path id="Ellipse_3-36" data-name="Ellipse 3" class="cls-1" d="M264,337V283.484a9,9,0,1,1,10,0V337Z" transform="translate(-85 -198)"/>
      </g>
      <g class="cls-63" transform="matrix(1, 0, 0, 1, 85, 198)">
        <circle id="Ellipse_4-36" data-name="Ellipse 4" class="cls-2" cx="4" cy="4" r="4" transform="translate(180 74)"/>
      </g>
    </g>
    <g id="_1_copy_6" data-name="1 copy 6">
      <g class="cls-62" transform="matrix(1, 0, 0, 1, 85, 198)">
        <path id="Ellipse_3-37" data-name="Ellipse 3" class="cls-3" d="M704,337V263.484a9,9,0,1,1,10,0V337Z" transform="translate(-85 -198)"/>
      </g>
      <g class="cls-61" transform="matrix(1, 0, 0, 1, 85, 198)">
        <circle id="Ellipse_4-37" data-name="Ellipse 4" class="cls-4" cx="4" cy="4" r="4" transform="translate(620 54)"/>
      </g>
    </g>
    <g id="_2_copy_7" data-name="2 copy 7">
      <g class="cls-60" transform="matrix(1, 0, 0, 1, 85, 198)">
        <path id="Ellipse_3-38" data-name="Ellipse 3" class="cls-3" d="M727,337V283.485a9,9,0,1,1,10,0V337Z" transform="translate(-85 -198)"/>
      </g>
      <g class="cls-59" transform="matrix(1, 0, 0, 1, 85, 198)">
        <circle id="Ellipse_4-38" data-name="Ellipse 4" class="cls-4" cx="4" cy="4" r="4" transform="translate(643 74)"/>
      </g>
    </g>
    <g id="_1_copy_7" data-name="1 copy 7">
      <g class="cls-58" transform="matrix(1, 0, 0, 1, 85, 198)">
        <path id="Ellipse_3-39" data-name="Ellipse 3" class="cls-3" d="M750,337V253.484a9,9,0,1,1,10,0V337Z" transform="translate(-85 -198)"/>
      </g>
      <g class="cls-57" transform="matrix(1, 0, 0, 1, 85, 198)">
        <circle id="Ellipse_4-39" data-name="Ellipse 4" class="cls-4" cx="4" cy="4" r="4" transform="translate(666 44)"/>
      </g>
    </g>
    <g id="_1_copy_10" data-name="1 copy 10">
      <g class="cls-56" transform="matrix(1, 0, 0, 1, 85, 198)">
        <path id="Ellipse_3-40" data-name="Ellipse 3" class="cls-1" d="M1233,337V263.484a9,9,0,1,1,10,0V337Z" transform="translate(-85 -198)"/>
      </g>
      <g class="cls-55" transform="matrix(1, 0, 0, 1, 85, 198)">
        <circle id="Ellipse_4-40" data-name="Ellipse 4" class="cls-2" cx="4" cy="4" r="4" transform="translate(1149 54)"/>
      </g>
    </g>
    <g id="_2_copy_13" data-name="2 copy 13">
      <g class="cls-54" transform="matrix(1, 0, 0, 1, 85, 198)">
        <path id="Ellipse_3-41" data-name="Ellipse 3" class="cls-1" d="M1256,337V283.485a9,9,0,1,1,10,0V337Z" transform="translate(-85 -198)"/>
      </g>
      <g class="cls-53" transform="matrix(1, 0, 0, 1, 85, 198)">
        <circle id="Ellipse_4-41" data-name="Ellipse 4" class="cls-2" cx="4" cy="4" r="4" transform="translate(1172 74)"/>
      </g>
    </g>
    <g id="_1_copy_11" data-name="1 copy 11">
      <g class="cls-52" transform="matrix(1, 0, 0, 1, 85, 198)">
        <path id="Ellipse_3-42" data-name="Ellipse 3" class="cls-1" d="M1279,337V233.484a9,9,0,1,1,10,0V337Z" transform="translate(-85 -198)"/>
      </g>
      <g class="cls-51" transform="matrix(1, 0, 0, 1, 85, 198)">
        <circle id="Ellipse_4-42" data-name="Ellipse 4" class="cls-2" cx="4" cy="4" r="4" transform="translate(1195 24)"/>
      </g>
    </g>
    <g id="_2_copy_8" data-name="2 copy 8">
      <g class="cls-50" transform="matrix(1, 0, 0, 1, 85, 198)">
        <path id="Ellipse_3-43" data-name="Ellipse 3" class="cls-3" d="M832,337V283.484a9,9,0,1,1,10,0V337Z" transform="translate(-85 -198)"/>
      </g>
      <g class="cls-49" transform="matrix(1, 0, 0, 1, 85, 198)">
        <circle id="Ellipse_4-43" data-name="Ellipse 4" class="cls-4" cx="4" cy="4" r="4" transform="translate(748 74)"/>
      </g>
    </g>
    <g id="_2_copy_9" data-name="2 copy 9">
      <g class="cls-48" transform="matrix(1, 0, 0, 1, 85, 198)">
        <path id="Ellipse_3-44" data-name="Ellipse 3" class="cls-3" d="M855,337V303.484a9,9,0,1,1,10,0V337Z" transform="translate(-85 -198)"/>
      </g>
      <g class="cls-47" transform="matrix(1, 0, 0, 1, 85, 198)">
        <circle id="Ellipse_4-44" data-name="Ellipse 4" class="cls-4" cx="4" cy="4" r="4" transform="translate(771 94)"/>
      </g>
    </g>
    <g id="_1_copy_2" data-name="1 copy 2">
      <g class="cls-46" transform="matrix(1, 0, 0, 1, 85, 198)">
        <path id="Ellipse_3-45" data-name="Ellipse 3" class="cls-1" d="M287,337V233.484a9,9,0,1,1,10,0V337Z" transform="translate(-85 -198)"/>
      </g>
      <g class="cls-45" transform="matrix(1, 0, 0, 1, 85, 198)">
        <circle id="Ellipse_4-45" data-name="Ellipse 4" class="cls-2" cx="4" cy="4" r="4" transform="translate(203 24)"/>
      </g>
    </g>
    <g id="_1_copy_3" data-name="1 copy 3">
      <g class="cls-44" transform="matrix(1, 0, 0, 1, 85, 198)">
        <path id="Ellipse_3-46" data-name="Ellipse 3" class="cls-3" d="M459,337v-7.515a9,9,0,1,1,10,0V337Z" transform="translate(-85 -198)"/>
      </g>
      <g class="cls-43" transform="matrix(1, 0, 0, 1, 85, 198)">
        <circle id="Ellipse_4-46" data-name="Ellipse 4" class="cls-4" cx="4" cy="4" r="4" transform="translate(375 120)"/>
      </g>
    </g>
    <g id="_2_copy_5" data-name="2 copy 5">
      <g class="cls-42" transform="matrix(1, 0, 0, 1, 85, 198)">
        <path id="Ellipse_3-47" data-name="Ellipse 3" class="cls-3" d="M482,337V313.485a9,9,0,1,1,10,0V337Z" transform="translate(-85 -198)"/>
      </g>
      <g class="cls-41" transform="matrix(1, 0, 0, 1, 85, 198)">
        <circle id="Ellipse_4-47" data-name="Ellipse 4" class="cls-4" cx="4" cy="4" r="4" transform="translate(398 104)"/>
      </g>
    </g>
    <g id="_1_copy_4" data-name="1 copy 4">
      <g class="cls-40" transform="matrix(1, 0, 0, 1, 85, 198)">
        <path id="Ellipse_3-48" data-name="Ellipse 3" class="cls-3" d="M505,337V263.484a9,9,0,1,1,10,0V337Z" transform="translate(-85 -198)"/>
      </g>
      <g class="cls-39" transform="matrix(1, 0, 0, 1, 85, 198)">
        <circle id="Ellipse_4-48" data-name="Ellipse 4" class="cls-4" cx="4" cy="4" r="4" transform="translate(421 54)"/>
      </g>
    </g>
    <g id="_1_copy_12" data-name="1 copy 12">
      <g class="cls-38" transform="matrix(1, 0, 0, 1, 85, 198)">
        <path id="Ellipse_3-49" data-name="Ellipse 3" class="cls-5" d="M1093,337v-7.515a9,9,0,1,1,10,0V337Z" transform="translate(-85 -198)"/>
      </g>
      <g class="cls-37" transform="matrix(1, 0, 0, 1, 85, 198)">
        <circle id="Ellipse_4-49" data-name="Ellipse 4" class="cls-6" cx="4" cy="4" r="4" transform="translate(1009 120)"/>
      </g>
    </g>
    <g id="_2_copy_14" data-name="2 copy 14">
      <g class="cls-36" transform="matrix(1, 0, 0, 1, 85, 198)">
        <path id="Ellipse_3-50" data-name="Ellipse 3" class="cls-5" d="M1116,337V313.484a9,9,0,1,1,10,0V337Z" transform="translate(-85 -198)"/>
      </g>
      <g class="cls-35" transform="matrix(1, 0, 0, 1, 85, 198)">
        <circle id="Ellipse_4-50" data-name="Ellipse 4" class="cls-6" cx="4" cy="4" r="4" transform="translate(1032 104)"/>
      </g>
    </g>
    <g id="_1_copy_13" data-name="1 copy 13">
      <g class="cls-34" transform="matrix(1, 0, 0, 1, 85, 198)">
        <path id="Ellipse_3-51" data-name="Ellipse 3" class="cls-5" d="M1139,337V263.484a9,9,0,1,1,10,0V337Z" transform="translate(-85 -198)"/>
      </g>
      <g class="cls-33" transform="matrix(1, 0, 0, 1, 85, 198)">
        <circle id="Ellipse_4-51" data-name="Ellipse 4" class="cls-6" cx="4" cy="4" r="4" transform="translate(1055 54)"/>
      </g>
    </g>
    <g id="_1_copy_14" data-name="1 copy 14">
      <g class="cls-32" transform="matrix(1, 0, 0, 1, 85, 198)">
        <path id="Ellipse_3-52" data-name="Ellipse 3" class="cls-1" d="M1185,337V293.485a9,9,0,1,1,10,0V337Z" transform="translate(-85 -198)"/>
      </g>
      <g class="cls-31" transform="matrix(1, 0, 0, 1, 85, 198)">
        <circle id="Ellipse_4-52" data-name="Ellipse 4" class="cls-2" cx="4" cy="4" r="4" transform="translate(1101 84)"/>
      </g>
    </g>
    <g id="_1_copy_15" data-name="1 copy 15">
      <g class="cls-30" transform="matrix(1, 0, 0, 1, 85, 198)">
        <path id="Ellipse_3-53" data-name="Ellipse 3" class="cls-1" d="M1358,337V263.484a9,9,0,1,1,10,0V337Z" transform="translate(-85 -198)"/>
      </g>
      <g class="cls-29" transform="matrix(1, 0, 0, 1, 85, 198)">
        <circle id="Ellipse_4-53" data-name="Ellipse 4" class="cls-2" cx="4" cy="4" r="4" transform="translate(1274 54)"/>
      </g>
    </g>
    <g id="_1_copy_16" data-name="1 copy 16">
      <g class="cls-28" transform="matrix(1, 0, 0, 1, 85, 198)">
        <path id="Ellipse_3-54" data-name="Ellipse 3" class="cls-1" d="M1317,337V293.484a9,9,0,1,1,10,0V337Z" transform="translate(-85 -198)"/>
      </g>
      <g class="cls-27" transform="matrix(1, 0, 0, 1, 85, 198)">
        <circle id="Ellipse_4-54" data-name="Ellipse 4" class="cls-2" cx="4" cy="4" r="4" transform="translate(1233 84)"/>
      </g>
    </g>
    <g id="_2_copy_6" data-name="2 copy 6">
      <g class="cls-26" transform="matrix(1, 0, 0, 1, 85, 198)">
        <path id="Ellipse_3-55" data-name="Ellipse 3" class="cls-3" d="M572,337V283.485a9,9,0,1,1,10,0V337Z" transform="translate(-85 -198)"/>
      </g>
      <g class="cls-25" transform="matrix(1, 0, 0, 1, 85, 198)">
        <circle id="Ellipse_4-55" data-name="Ellipse 4" class="cls-4" cx="4" cy="4" r="4" transform="translate(488 74)"/>
      </g>
    </g>
    <g id="_1_copy_5" data-name="1 copy 5">
      <g class="cls-24" transform="matrix(1, 0, 0, 1, 85, 198)">
        <path id="Ellipse_3-56" data-name="Ellipse 3" class="cls-3" d="M595,337V319.484a9,9,0,1,1,10,0V337Z" transform="translate(-85 -198)"/>
      </g>
      <g class="cls-23" transform="matrix(1, 0, 0, 1, 85, 198)">
        <circle id="Ellipse_4-56" data-name="Ellipse 4" class="cls-4" cx="4" cy="4" r="4" transform="translate(511 110)"/>
      </g>
    </g>
    <g id="_2_copy" data-name="2 copy">
      <g class="cls-22" transform="matrix(1, 0, 0, 1, 85, 198)">
        <path id="Ellipse_3-57" data-name="Ellipse 3" class="cls-1" d="M170,337V313.485a9,9,0,1,1,10,0V337Z" transform="translate(-85 -198)"/>
      </g>
      <g class="cls-21" transform="matrix(1, 0, 0, 1, 85, 198)">
        <circle id="Ellipse_4-57" data-name="Ellipse 4" class="cls-2" cx="4" cy="4" r="4" transform="translate(86 104)"/>
      </g>
    </g>
    <g id="_2_copy_4" data-name="2 copy 4">
      <g class="cls-20" transform="matrix(1, 0, 0, 1, 85, 198)">
        <path id="Ellipse_3-58" data-name="Ellipse 3" class="cls-1" d="M329,337V313.485a9,9,0,1,1,10,0V337Z" transform="translate(-85 -198)"/>
      </g>
      <g class="cls-19" transform="matrix(1, 0, 0, 1, 85, 198)">
        <circle id="Ellipse_4-58" data-name="Ellipse 4" class="cls-2" cx="4" cy="4" r="4" transform="translate(245 104)"/>
      </g>
    </g>
    <g id="_2_copy_2" data-name="2 copy 2">
      <g class="cls-18" transform="matrix(1, 0, 0, 1, 85, 198)">
        <path id="Ellipse_3-59" data-name="Ellipse 3" class="cls-1" d="M193,337V273.484a9,9,0,1,1,10,0V337Z" transform="translate(-85 -198)"/>
      </g>
      <g class="cls-17" transform="matrix(1, 0, 0, 1, 85, 198)">
        <circle id="Ellipse_4-59" data-name="Ellipse 4" class="cls-2" cx="4" cy="4" r="4" transform="translate(109 64)"/>
      </g>
    </g>
    <g id="_1_copy_8" data-name="1 copy 8">
      <g class="cls-16" transform="matrix(1, 0, 0, 1, 85, 198)">
        <path id="Ellipse_3-60" data-name="Ellipse 3" class="cls-5" d="M924,337V223.485a9,9,0,1,1,10,0V337Z" transform="translate(-85 -198)"/>
      </g>
      <g class="cls-15" transform="matrix(1, 0, 0, 1, 85, 198)">
        <circle id="Ellipse_4-60" data-name="Ellipse 4" class="cls-6" cx="4" cy="4" r="4" transform="translate(840 14)"/>
      </g>
    </g>
    <g id="_2_copy_10" data-name="2 copy 10">
      <g class="cls-14" transform="matrix(1, 0, 0, 1, 85, 198)">
        <path id="Ellipse_3-61" data-name="Ellipse 3" class="cls-5" d="M947,337V253.484a9,9,0,1,1,10,0V337Z" transform="translate(-85 -198)"/>
      </g>
      <g class="cls-13" transform="matrix(1, 0, 0, 1, 85, 198)">
        <circle id="Ellipse_4-61" data-name="Ellipse 4" class="cls-6" cx="4" cy="4" r="4" transform="translate(863 44)"/>
      </g>
    </g>
    <g id="_1_copy_9" data-name="1 copy 9">
      <g class="cls-12" transform="matrix(1, 0, 0, 1, 85, 198)">
        <path id="Ellipse_3-62" data-name="Ellipse 3" class="cls-5" d="M970,337V233.485a9,9,0,1,1,10,0V337Z" transform="translate(-85 -198)"/>
      </g>
      <g class="cls-11" transform="matrix(1, 0, 0, 1, 85, 198)">
        <circle id="Ellipse_4-62" data-name="Ellipse 4" class="cls-6" cx="4" cy="4" r="4" transform="translate(886 24)"/>
      </g>
    </g>
    <g id="_2_copy_11" data-name="2 copy 11">
      <g class="cls-10" transform="matrix(1, 0, 0, 1, 85, 198)">
        <path id="Ellipse_3-63" data-name="Ellipse 3" class="cls-5" d="M993,337V273.484a9,9,0,1,1,10,0V337Z" transform="translate(-85 -198)"/>
      </g>
      <g class="cls-9" transform="matrix(1, 0, 0, 1, 85, 198)">
        <circle id="Ellipse_4-63" data-name="Ellipse 4" class="cls-6" cx="4" cy="4" r="4" transform="translate(909 64)"/>
      </g>
    </g>
    <g id="_2_copy_12" data-name="2 copy 12">
      <g class="cls-8" transform="matrix(1, 0, 0, 1, 85, 198)">
        <path id="Ellipse_3-64" data-name="Ellipse 3" class="cls-5" d="M1016,337V293.485a9,9,0,1,1,10,0V337Z" transform="translate(-85 -198)"/>
      </g>
      <g class="cls-7" transform="matrix(1, 0, 0, 1, 85, 198)">
        <circle id="Ellipse_4-64" data-name="Ellipse 4" class="cls-6" cx="4" cy="4" r="4" transform="translate(932 84)"/>
      </g>
    </g>
  </g>
</svg>
