<svg xmlns="http://www.w3.org/2000/svg" width="18.764" height="18.819" viewBox="0 0 18.764 18.819">
  <defs>
    <style>
      .cls-1 {
        fill: #fff;
      }
    </style>
  </defs>
  <path id="Edit" class="cls-1" d="M1367.528,79.516l-2.792-2.9a1.3,1.3,0,0,0-1.983.085l-11.685,11.661-1.854,5.639c-.208.78.16,1.163.93.965l5.576-1.777,11.685-11.661A1.357,1.357,0,0,0,1367.528,79.516Zm-16.786,13.912,1.37-4.206,2.792,2.9Zm5.213-2.362c-.955-.992-2.521-2.615-2.792-2.9L1360,81.345l2.792,2.9Zm7.891-7.874-2.792-2.9,2.1-2.1c.505-.534.553-.532.991-.042l1.861,1.932c.453.476.484.466-.061,1.007Z" transform="translate(-1349.157 -76.203)"/>
</svg>
