<svg id="menu" xmlns="http://www.w3.org/2000/svg" xmlns:xlink="http://www.w3.org/1999/xlink" width="28" height="18.609" viewBox="0 0 28 18.609">
  <defs>
    <style>
      .cls-1 {
        fill: url(#pattern);
      }

      .cls-2 {
        fill: #fff;
      }
    </style>
    <pattern id="pattern" preserveAspectRatio="none" width="100%" height="100%" viewBox="0 0 0 0">
      <image/>
    </pattern>
  </defs>
  <rect id="Layer_1" data-name="Layer 1" class="cls-1"/>
  <path id="Shape_16_copy" data-name="Shape 16 copy" class="cls-2" d="M2.509,14.987a1.817,1.817,0,1,0,0,3.622,1.817,1.817,0,1,0,0-3.622ZM27.02,8.648H9.372a.908.908,0,1,0,0,1.811H27.02a.908.908,0,1,0,0-1.811ZM2.509,7.742A1.891,1.891,0,0,0,.548,9.553a1.891,1.891,0,0,0,1.961,1.811A1.89,1.89,0,0,0,4.47,9.553,1.89,1.89,0,0,0,2.509,7.742ZM9.372,3.215H27.02A.945.945,0,0,0,28,2.309a.945.945,0,0,0-.98-.906H9.372a.945.945,0,0,0-.98.906A.945.945,0,0,0,9.372,3.215ZM2.509.5A1.891,1.891,0,0,0,.548,2.309,1.891,1.891,0,0,0,2.509,4.12,1.89,1.89,0,0,0,4.47,2.309,1.89,1.89,0,0,0,2.509.5ZM27.02,15.892H9.372a.908.908,0,1,0,0,1.811H27.02a.908.908,0,1,0,0-1.811Z"/>
</svg>
