<svg xmlns="http://www.w3.org/2000/svg" width="19.005" height="19.131" viewBox="0 0 19.005 19.131">
  <defs>
    <style>
      .cls-1 {
        fill: #fff;
      }
    </style>
  </defs>
  <path id="Refresh" class="cls-1" d="M1367.418,44.956h-5.939a.6.6,0,0,0,0,1.2h4.534a8.288,8.288,0,0,1-15.724-2.391h-1.2a9.479,9.479,0,0,0,17.735,3.432v4.34a.594.594,0,1,0,1.188,0V45.554A.554.554,0,0,0,1367.418,44.956ZM1349.6,40.173h5.939a.6.6,0,0,0,0-1.2H1351a8.291,8.291,0,0,1,15.728,2.392h1.2a9.48,9.48,0,0,0-17.735-3.433V33.6a.594.594,0,1,0-1.188,0v5.978A.6.6,0,0,0,1349.6,40.173Z" transform="translate(-1349.006 -32.999)"/>
</svg>
