<svg xmlns="http://www.w3.org/2000/svg" width="20" height="19" viewBox="0 0 20 19">
  <defs>
    <style>
      .cls-1 {
        fill: #3b626c;
      }
    </style>
  </defs>
  <path id="Shape_39" data-name="Shape 39" class="cls-1" d="M1317.491,161a.609.609,0,0,1-.621-.6v-3.732a.608.608,0,0,1,.621-.595h3.889a.608.608,0,0,1,.62.595V160.4a.608.608,0,0,1-.62.6Zm-7.436,0a.608.608,0,0,1-.62-.6v-3.732a.608.608,0,0,1,.62-.6h3.89a.608.608,0,0,1,.619.6V160.4a.608.608,0,0,1-.619.6Zm-7.435,0a.608.608,0,0,1-.62-.6v-3.732a.608.608,0,0,1,.62-.595h3.889a.608.608,0,0,1,.62.595V160.4a.608.608,0,0,1-.62.6Zm14.871-7.039a.608.608,0,0,1-.621-.595v-3.732a.609.609,0,0,1,.621-.6h3.889a.608.608,0,0,1,.62.6v3.732a.608.608,0,0,1-.62.595Zm-7.436,0a.608.608,0,0,1-.62-.595v-3.732a.608.608,0,0,1,.62-.6h3.89a.608.608,0,0,1,.619.6v3.732a.607.607,0,0,1-.619.595Zm-7.435,0a.608.608,0,0,1-.62-.595v-3.732a.608.608,0,0,1,.62-.6h3.889a.608.608,0,0,1,.62.6v3.732a.608.608,0,0,1-.62.595Zm14.871-7.038a.608.608,0,0,1-.621-.595V142.6a.608.608,0,0,1,.621-.595h3.889a.608.608,0,0,1,.62.595v3.733a.608.608,0,0,1-.62.595Zm-7.436,0a.608.608,0,0,1-.62-.595V142.6a.608.608,0,0,1,.62-.595h3.89a.607.607,0,0,1,.619.595v3.733a.607.607,0,0,1-.619.595Zm-7.435,0a.608.608,0,0,1-.62-.595V142.6a.608.608,0,0,1,.62-.595h3.889a.608.608,0,0,1,.62.595v3.733a.608.608,0,0,1-.62.595Z" transform="translate(-1302 -142)"/>
</svg>
